<svg width="30" height="29" viewBox="0 0 30 29" fill="none" xmlns="http://www.w3.org/2000/svg">
<path d="M28.9986 27.9702C27.9133 27.9702 27.0784 27.4414 26.1044 25.883C25.1303 24.3246 18.1452 13.3598 18.1452 13.3598C17.6164 12.5806 16.865 12.024 15.9745 11.7457L24.7685 2.95167C25.6591 2.06113 25.0468 0.530518 23.7945 0.530518C22.0134 0.530518 18.507 0.530518 17.4773 0.530518C16.3641 0.530518 15.4736 0.864469 14.8891 1.50454C14.1934 2.25593 13.8873 3.34128 14.0264 4.53794L15.1396 4.42662C15.0561 3.56391 15.2509 2.81252 15.724 2.31159C16.1136 1.86633 16.7259 1.67152 17.4216 1.64369C19.0079 1.5602 20.0097 2.78469 19.9541 4.1205C19.9263 5.37282 19.5088 6.51381 16.3641 9.88116C16.1415 10.1038 9.82422 16.3654 9.82422 16.3654C11.1879 16.3654 12.4402 17.0333 13.1916 18.1465L19.0914 26.9405C19.9541 28.2207 21.4012 28.9999 22.9318 28.9999H24.6572H28.4977H30.0005V28.0259H28.9986V27.9702Z" fill="#EDE7E1"/>
<path d="M3.53432 0.558349C3.61781 4.09267 0.890537 4.84406 0 5.03886L0.111315 6.09638C0.834877 6.09638 2.50464 5.48413 3.50649 4.37096L3.53432 4.34313C3.67347 4.20398 3.81261 4.00918 3.81261 4.00918L4.17439 4.37096C4.17439 4.37096 3.50649 4.84406 3.50649 5.76243V22.5991L9.82374 16.2541V2.5064C9.82374 1.42106 8.9332 0.530518 7.84786 0.530518H3.53432V0.558349Z" fill="#EDE7E1"/>
</svg>
