<svg width="32" height="32" viewBox="0 0 32 32" fill="none" xmlns="http://www.w3.org/2000/svg">
<path d="M16 8C20.416 8 24 11.584 24 16C24 20.416 20.416 24 16 24C11.584 24 8 20.416 8 16C8 11.584 11.584 8 16 8ZM16 20.8C18.6453 20.8 20.8 18.6453 20.8 16C20.8 13.3547 18.6453 11.2 16 11.2C13.3547 11.2 11.2 13.3547 11.2 16C11.2 18.6453 13.3547 20.8 16 20.8ZM24 22.4C24.8747 22.4 25.6 23.1253 25.6 24C25.6 24.8747 24.8747 25.6 24 25.6C23.1253 25.6 22.4 24.8747 22.4 24C22.4 23.1253 23.1253 22.4 24 22.4ZM0 32V-7.7486e-07H32V32H0ZM28.8 3.2H3.2V28.8H28.8V3.2Z" fill="white"/>
</svg>
