<svg width="17" height="11" viewBox="0 0 17 11" fill="none" xmlns="http://www.w3.org/2000/svg">
<path d="M12.6 0.00799775C13.224 0.00799775 13.776 0.127998 14.256 0.368C14.76 0.584 15.156 0.907999 15.444 1.34C15.708 1.676 15.924 2.144 16.092 2.744C16.26 3.344 16.344 4.016 16.344 4.76C16.344 5.96 16.032 7.1 15.408 8.18C14.784 9.236 13.824 10.064 12.528 10.664L12.204 10.016C12.828 9.728 13.392 9.32 13.896 8.792C14.4 8.24 14.736 7.664 14.904 7.064C15.12 6.392 15.156 5.732 15.012 5.084C14.388 5.828 13.512 6.2 12.384 6.2C11.424 6.2 10.656 5.936 10.08 5.408C9.504 4.856 9.216 4.088 9.216 3.104C9.216 2.168 9.528 1.424 10.152 0.872C10.776 0.295998 11.592 0.00799775 12.6 0.00799775ZM4.32 0.00799775C4.944 0.00799775 5.496 0.127998 5.976 0.368C6.48 0.584 6.876 0.907999 7.164 1.34C7.428 1.676 7.644 2.144 7.812 2.744C7.98 3.344 8.064 4.016 8.064 4.76C8.064 5.96 7.752 7.1 7.128 8.18C6.504 9.236 5.544 10.064 4.248 10.664L3.924 10.016C4.548 9.728 5.112 9.32 5.616 8.792C6.12 8.24 6.456 7.664 6.624 7.064C6.84 6.392 6.876 5.732 6.732 5.084C6.108 5.828 5.232 6.2 4.104 6.2C3.144 6.2 2.376 5.936 1.8 5.408C1.224 4.856 0.936 4.088 0.936 3.104C0.936 2.168 1.248 1.424 1.872 0.872C2.496 0.295998 3.312 0.00799775 4.32 0.00799775Z" fill="#3D2B30"/>
</svg>
