<svg width="15" height="16" viewBox="0 0 15 16" fill="none" xmlns="http://www.w3.org/2000/svg">
<path d="M7.5 1.64667C10.815 1.64667 13.5 4.33549 13.5 7.65521C13.5 10.9749 10.815 13.6638 7.5 13.6638C4.185 13.6638 1.5 10.9749 1.5 7.65521C1.5 4.33549 4.185 1.64667 7.5 1.64667ZM7.5 0.144531C3.36 0.144531 0 3.50932 0 7.65521C0 11.8011 3.36 15.1659 7.5 15.1659C11.64 15.1659 15 11.8011 15 7.65521C15 3.50932 11.64 0.144531 7.5 0.144531Z" fill="white"/>
<path d="M10.5 8.40631H6.75V4.65094H8.25V6.90416H10.5V8.40631Z" fill="white"/>
</svg>
