<svg width="53" height="50" viewBox="0 0 53 50" fill="none" xmlns="http://www.w3.org/2000/svg">
<path d="M50.9284 48.1916C49.0222 48.1916 47.556 47.2629 45.8453 44.5259C44.1347 41.7888 31.8668 22.5318 31.8668 22.5318C30.9382 21.1632 29.6185 20.1857 28.0545 19.697L43.4993 4.2522C45.0633 2.68817 43.988 0 41.7886 0C38.6606 0 32.5022 0 30.6938 0C28.7388 0 27.1747 0.58651 26.1483 1.71065C24.9264 3.0303 24.3888 4.93647 24.6332 7.03813L26.5882 6.84263C26.4416 5.32748 26.7837 4.00782 27.6146 3.12806C28.2989 2.34605 29.3741 2.00391 30.596 1.95503C33.382 1.80841 35.1415 3.95895 35.0437 6.30499C34.9949 8.5044 34.2617 10.5083 28.7388 16.4223C28.3477 16.8133 17.2529 27.8104 17.2529 27.8104C19.6478 27.8104 21.8473 28.9834 23.1669 30.9384L33.5286 46.3832C35.0437 48.6315 37.5853 50 40.2735 50H43.3038H50.0486H52.6879V48.2893H50.9284V48.1916Z" fill="#E86953"/>
<path d="M6.20723 0.0488788C6.35386 6.25611 1.56403 7.57576 0 7.91789L0.1955 9.77518C1.46627 9.77518 4.39883 8.6999 6.15836 6.74487L6.20723 6.69599C6.45161 6.45161 6.69599 6.10949 6.69599 6.10949L7.33138 6.74487C7.33138 6.74487 6.15836 7.57576 6.15836 9.18866V38.7586L17.2532 27.6149V3.47019C17.2532 1.56403 15.6891 0 13.783 0H6.20723V0.0488788Z" fill="#E86953"/>
</svg>
