<svg width="60" height="40" viewBox="0 0 60 40" fill="none" xmlns="http://www.w3.org/2000/svg">
<path d="M60 14C60 6.26 51.94 0 42 0C33.42 0 26.24 4.68 24.44 10.92C22.44 10.32 20.26 10 18 10C8.06 10 0 16.26 0 24C0 26.96 1.18 29.72 3.2 31.98L0 40L8.36 35.82C11.14 37.2 14.46 38 18 38C26.58 38 33.76 33.32 35.56 27.08C37.56 27.68 39.72 28 42 28C45.54 28 48.86 27.2 51.64 25.82L60 30L56.8 21.98C58.82 19.72 60 16.96 60 14ZM29.5 32.32C26.44 34.7 22.36 36 18 36C14.88 36 11.84 35.32 9.24 34.02L8.34 33.58L7.46 34.02L3.8 35.84L5.06 32.7L5.52 31.54L4.7 30.62C2.94 28.66 2 26.38 2 24C2 20.9 3.6 17.94 6.5 15.68C9.56 13.3 13.64 12 18 12C22.36 12 26.44 13.3 29.5 15.68C32.4 17.94 34 20.9 34 24C34 27.1 32.4 30.06 29.5 32.32ZM52.54 24.04L51.66 23.6L50.76 24.04C48.16 25.32 45.12 26.02 42 26.02C39.88 26.02 37.84 25.72 35.94 25.12C35.98 24.76 36 24.38 36 24.02C36 18.62 32.08 13.94 26.34 11.6C26.94 9.4 28.36 7.36 30.5 5.7C33.56 3.3 37.64 2 42 2C46.36 2 50.44 3.3 53.5 5.68C56.4 7.94 58 10.9 58 14C58 16.38 57.06 18.66 55.3 20.64L54.48 21.56L54.94 22.72L56.2 25.86L52.54 24.04Z" fill="#E86953"/>
<path d="M12 22C10.9 22 10 22.9 10 24C10 25.1 10.9 26 12 26C13.1 26 14 25.1 14 24C14 22.9 13.1 22 12 22Z" fill="#E86953"/>
<path d="M18 22C16.9 22 16 22.9 16 24C16 25.1 16.9 26 18 26C19.1 26 20 25.1 20 24C20 22.9 19.1 22 18 22Z" fill="#E86953"/>
<path d="M24 22C22.9 22 22 22.9 22 24C22 25.1 22.9 26 24 26C25.1 26 26 25.1 26 24C26 22.9 25.1 22 24 22Z" fill="#E86953"/>
<path d="M36 12C34.9 12 34 12.9 34 14C34 15.1 34.9 16 36 16C37.1 16 38 15.1 38 14C38 12.9 37.1 12 36 12Z" fill="#E86953"/>
<path d="M42 12C40.9 12 40 12.9 40 14C40 15.1 40.9 16 42 16C43.1 16 44 15.1 44 14C44 12.9 43.1 12 42 12Z" fill="#E86953"/>
<path d="M48 12C46.9 12 46 12.9 46 14C46 15.1 46.9 16 48 16C49.1 16 50 15.1 50 14C50 12.9 49.1 12 48 12Z" fill="#E86953"/>
</svg>
