<svg width="60" height="40" viewBox="0 0 60 40" fill="none" xmlns="http://www.w3.org/2000/svg">
<path d="M56 0C53.8 0 52 1.8 52 4V11.3C50.72 10.96 49.3 11.28 48.3 12.28L42.58 18C35.6 18.22 30 23.98 30 31C30 23.98 24.4 18.22 17.42 18L11.7 12.3C10.7 11.3 9.28 10.98 8 11.32V4C8 1.8 6.2 0 4 0C1.8 0 0 1.8 0 4V17.24L6.26 29.74L18 35.62V40H20V34.38L7.74 28.26L2 16.76V4C2 2.9 2.9 2 4 2C5.1 2 6 2.9 6 4V12.62C5.46 13.3 5.18 14.12 5.18 15C5.18 16.02 5.58 16.98 6.3 17.7L12.3 23.7L13.72 22.28L7.72 16.28C7.38 15.94 7.18 15.48 7.18 14.98C7.18 14.48 7.38 14.04 7.72 13.68C8.44 12.96 9.6 12.96 10.3 13.68L16.58 20H17C23.06 20 28 24.94 28 31V40H30H32V31C32 24.94 36.94 20 43 20H43.42L49.72 13.7C50.44 12.98 51.6 12.98 52.3 13.7C52.64 14.04 52.84 14.5 52.84 15C52.84 15.5 52.64 15.94 52.3 16.3L46.3 22.3L47.72 23.72L53.72 17.72C54.44 17 54.84 16.04 54.84 15.02C54.84 14.14 54.54 13.32 54.02 12.64V4C54.02 2.9 54.92 2 56.02 2C57.12 2 58.02 2.9 58.02 4V16.76L52.28 28.26L40 34.38V40H42V35.62L53.74 29.74L60 17.24V4C60 1.8 58.2 0 56 0Z" fill="#E86953"/>
</svg>
