<svg width="60" height="40" viewBox="0 0 60 40" fill="none" xmlns="http://www.w3.org/2000/svg">
<path d="M25 2C26.1 2 27 2.9 27 4V14C27 15.1 26.1 16 25 16H10C8.9 16 8 15.1 8 14V4C8 2.9 8.9 2 10 2H25ZM25 0H10C7.8 0 6 1.8 6 4V14C6 16.2 7.8 18 10 18H25C27.2 18 29 16.2 29 14V4C29 1.8 27.2 0 25 0Z" fill="#E86953"/>
<path d="M50 2C51.1 2 52 2.9 52 4V14C52 15.1 51.1 16 50 16H35C33.9 16 33 15.1 33 14V4C33 2.9 33.9 2 35 2H50ZM50 0H35C32.8 0 31 1.8 31 4V14C31 16.2 32.8 18 35 18H50C52.2 18 54 16.2 54 14V4C54 1.8 52.2 0 50 0Z" fill="#E86953"/>
<path d="M25 22C26.1 22 27 22.9 27 24C27 25.1 26.1 26 25 26H10C8.9 26 8 25.1 8 24C8 22.9 8.9 22 10 22H25ZM25 20H10C7.8 20 6 21.8 6 24C6 26.2 7.8 28 10 28H25C27.2 28 29 26.2 29 24C29 21.8 27.2 20 25 20Z" fill="#E86953"/>
<path d="M50 22C51.1 22 52 22.9 52 24C52 25.1 51.1 26 50 26H35C33.9 26 33 25.1 33 24C33 22.9 33.9 22 35 22H50ZM50 20H35C32.8 20 31 21.8 31 24C31 26.2 32.8 28 35 28H50C52.2 28 54 26.2 54 24C54 21.8 52.2 20 50 20Z" fill="#E86953"/>
<path d="M14 40C12.9 40 12 39.1 12 38C12 36.9 12.9 36 14 36C15.1 36 16 36.9 16 38C16 39.1 15.1 40 14 40Z" fill="#E86953"/>
<path d="M46 40C47.1 40 48 39.1 48 38C48 36.9 47.1 36 46 36C44.9 36 44 36.9 44 38C44 39.1 44.9 40 46 40Z" fill="#E86953"/>
<path d="M50 34H10C4.48 34 0 29.52 0 24V12C0 10.9 0.9 10 2 10C3.1 10 4 10.9 4 12V24C4 27.3 6.7 30 10 30H50C53.3 30 56 27.3 56 24V12C56 10.9 56.9 10 58 10C59.1 10 60 10.9 60 12V24C60 29.52 55.52 34 50 34Z" fill="#E86953"/>
</svg>
