<svg width="60" height="40" viewBox="0 0 60 40" fill="none" xmlns="http://www.w3.org/2000/svg">
<path d="M12 21.7598C12 27.2956 15.06 32.2141 20.82 35.9378C24.78 38.4866 28.72 39.6217 28.9 39.6814L30 40L31.1 39.6814C31.26 39.6416 35.22 38.4866 39.18 35.9378C44.96 32.2141 48 27.3155 48 21.7598C48 15.2483 42.72 9.95146 36.22 9.95146C34 9.95146 31.84 10.5887 30 11.7436C28.16 10.5887 26 9.95146 23.78 9.95146C17.28 9.95146 12 15.2483 12 21.7598ZM23.78 13.934C26.32 13.934 28.58 15.1686 30 17.0604C31.42 15.1686 33.68 13.934 36.22 13.934C40.52 13.934 44 17.4387 44 21.7598C44 31.8556 30 35.8382 30 35.8382C30 35.8382 16 31.8556 16 21.7598C16 17.4387 19.48 13.934 23.78 13.934Z" fill="#E86953"/>
<path d="M7.6001 12.5202C7.8801 12.5202 8.1801 12.4007 8.3801 12.1618C9.5401 10.748 10.8401 9.45364 12.2601 8.29869C12.6801 7.94026 12.7401 7.32296 12.4001 6.90479C12.0401 6.48662 11.4201 6.42688 11.0001 6.7654C9.4801 8 8.0801 9.3939 6.8401 10.8874C6.4801 11.3055 6.5601 11.9427 6.9801 12.2813C7.1401 12.4406 7.3801 12.5202 7.6001 12.5202Z" fill="#E86953"/>
<path d="M16.3401 5.37149C16.5001 5.37149 16.6601 5.33167 16.8201 5.25202C18.4401 4.39576 20.1401 3.69881 21.8801 3.16116C22.4001 3.00186 22.7001 2.4443 22.5401 1.92657C22.3801 1.40883 21.8201 1.11014 21.3001 1.26944C19.4201 1.827 17.6001 2.58369 15.8601 3.49968C15.3801 3.75855 15.1801 4.35594 15.4401 4.85376C15.6401 5.19228 15.9801 5.37149 16.3401 5.37149Z" fill="#E86953"/>
<path d="M1.95993 22.397C2.05993 22.4169 2.15993 22.4368 2.25993 22.4368C2.67993 22.4368 3.07993 22.1581 3.21993 21.7399C3.75993 20.0075 4.45993 18.295 5.31993 16.7019C5.57993 16.224 5.39993 15.6067 4.91993 15.3478C4.43993 15.089 3.81993 15.2682 3.55993 15.7461C2.63993 17.4586 1.87993 19.2906 1.29993 21.1425C1.13993 21.6801 1.43993 22.2178 1.95993 22.397Z" fill="#E86953"/>
<path d="M56.7799 21.7001C56.9199 22.1382 57.2999 22.397 57.7399 22.397C57.8399 22.397 57.9399 22.3771 58.0399 22.3572C58.5599 22.1979 58.8599 21.6403 58.6999 21.1226C58.1199 19.2508 57.3599 17.4387 56.4399 15.7262C56.1799 15.2483 55.5799 15.0691 55.0799 15.3279C54.5999 15.5868 54.4199 16.1842 54.6799 16.682C55.5399 18.2751 56.2599 19.9676 56.7799 21.7001Z" fill="#E86953"/>
<path d="M27.14 2.1257C27.18 2.1257 27.2 2.1257 27.24 2.1257C29.04 1.94648 30.92 1.94648 32.72 2.1257C33.26 2.18544 33.76 1.78718 33.82 1.22962C33.88 0.691973 33.48 0.194151 32.92 0.134412C30.98 -0.044804 28.98 -0.044804 27.04 0.134412C26.5 0.194151 26.08 0.67206 26.14 1.22962C26.2 1.74736 26.64 2.1257 27.14 2.1257Z" fill="#E86953"/>
<path d="M51.6199 12.1419C51.8199 12.3808 52.0999 12.5003 52.3999 12.5003C52.6199 12.5003 52.8399 12.4207 53.0399 12.2813C53.4599 11.9228 53.5199 11.3055 53.1799 10.8874C51.9399 9.37398 50.5399 8 49.0199 6.7654C48.5999 6.40697 47.9599 6.48662 47.6199 6.90479C47.2599 7.32296 47.3399 7.96017 47.7599 8.29869C49.1599 9.43372 50.4599 10.7281 51.6199 12.1419Z" fill="#E86953"/>
<path d="M38.1199 3.16116C39.8599 3.6789 41.5799 4.39576 43.1799 5.25202C43.3399 5.33167 43.4999 5.37149 43.6599 5.37149C44.0199 5.37149 44.3599 5.17237 44.5399 4.85376C44.7999 4.37585 44.6199 3.75855 44.1199 3.49968C42.3999 2.58369 40.5599 1.827 38.6799 1.26944C38.1599 1.11014 37.5999 1.40883 37.4399 1.92657C37.2799 2.46421 37.5799 3.02177 38.1199 3.16116Z" fill="#E86953"/>
<path d="M59.86 26.8774C59.8 26.3398 59.32 25.9216 58.76 25.9813C58.22 26.0411 57.8 26.519 57.86 27.0765C57.96 27.9925 58 28.9284 58 29.8644C58 30.8003 57.96 31.7362 57.86 32.6522C57.8 33.1898 58.2 33.6876 58.76 33.7474C58.8 33.7474 58.82 33.7474 58.86 33.7474C59.36 33.7474 59.8 33.369 59.86 32.8513C59.96 31.8756 60 30.86 60 29.8644C60 28.8687 59.96 27.8731 59.86 26.8774Z" fill="#E86953"/>
<path d="M2.14 32.6521C2.04 31.7362 2 30.8003 2 29.8643C2 28.9284 2.04 27.9925 2.14 27.0765C2.2 26.5389 1.8 26.0411 1.24 25.9813C0.68 25.9216 0.2 26.3199 0.14 26.8774C0.04 27.8731 0 28.8687 0 29.8643C0 30.86 0.04 31.8556 0.14 32.8513C0.2 33.369 0.62 33.7474 1.14 33.7474C1.18 33.7474 1.2 33.7474 1.24 33.7474C1.8 33.6876 2.2 33.1898 2.14 32.6521Z" fill="#E86953"/>
</svg>
