<svg width="50" height="50" viewBox="0 0 50 50" fill="none" xmlns="http://www.w3.org/2000/svg">
<path d="M25 37.5C31.9 37.5 37.5 31.9 37.5 25C37.5 18.1 31.9 12.5 25 12.5C18.1 12.5 12.5 18.1 12.5 25C12.5 31.9 18.1 37.5 25 37.5ZM25 17.5C29.1333 17.5 32.5 20.8667 32.5 25C32.5 29.1333 29.1333 32.5 25 32.5C20.8667 32.5 17.5 29.1333 17.5 25C17.5 20.8667 20.8667 17.5 25 17.5ZM37.5 15C38.8667 15 40 13.8667 40 12.5C40 11.1333 38.8667 10 37.5 10C36.1333 10 35 11.1333 35 12.5C35 13.8667 36.1333 15 37.5 15ZM0 0V50H50V0H0ZM45 45H5V5H45V45Z" fill="#E86953"/>
</svg>
