<svg width="106" height="40" viewBox="0 0 106 40" fill="none" xmlns="http://www.w3.org/2000/svg">
<g clip-path="url(#clip0_733_233)">
<path d="M7.46207 9.23164V11.273H8.52813L8.53947 8.24497H7.31463V0.362915H6.24857V8.25631H1.81421V0.362915H0.748149L0.75949 9.2203L7.46207 9.23164ZM14.8111 7.73462C14.3915 7.96144 14.0286 8.12021 13.7337 8.22228C13.4388 8.32435 13.1099 8.38106 12.7697 8.38106C12.0439 8.38106 11.5449 8.17692 11.2727 7.7573C11.0005 7.33768 10.853 6.8727 10.8417 6.33967H15.3555L15.3895 5.96541C15.4008 5.88602 15.4122 5.79529 15.4122 5.68188C15.4235 5.57981 15.4235 5.44372 15.4235 5.29629C15.4235 4.7746 15.3101 4.30961 15.0719 3.88999C14.8338 3.47037 14.5049 3.13014 14.0966 2.89198C13.6883 2.65381 13.2233 2.52906 12.7243 2.52906C12.1119 2.52906 11.5789 2.69918 11.1366 3.03941C10.6943 3.37964 10.354 3.82194 10.1159 4.36632C9.87772 4.91069 9.76431 5.50042 9.76431 6.13553C9.76431 6.75928 9.87772 7.315 10.1159 7.80266C10.3427 8.29033 10.6829 8.67593 11.1366 8.94811C11.5789 9.2203 12.1006 9.35639 12.713 9.35639C13.178 9.35639 13.643 9.27701 14.0966 9.12957C14.5502 8.9708 14.9472 8.76666 15.2874 8.50581L14.8111 7.73462ZM11.5449 3.9467C11.8737 3.61781 12.2593 3.45903 12.713 3.45903C13.0305 3.45903 13.3254 3.53842 13.5862 3.69719C13.8471 3.85597 14.0512 4.07145 14.21 4.34363C14.3574 4.61582 14.4368 4.93337 14.4368 5.2736V5.37567H10.8984C11.0005 4.75191 11.216 4.27559 11.5449 3.9467ZM21.9106 5.53445H18.6103V4.42302C18.6103 3.68585 18.3382 3.05075 17.7938 2.50638L17.068 3.22087C17.3855 3.53842 17.5443 3.9467 17.5443 4.43436V9.20896H18.6103V6.52112H21.9106V9.20896H22.9767V2.74454H21.9106V5.53445ZM27.6265 9.20896H28.6926V3.70853H31.2783V2.72186H25.0407V3.70853H27.6265V9.20896ZM32.9908 11.273H34.0115V9.2203C34.6353 9.29969 35.0776 9.33371 35.3271 9.33371C35.9849 9.33371 36.5519 9.18628 37.0396 8.89141C37.5273 8.59654 37.9015 8.18826 38.151 7.66657C38.4005 7.14488 38.5366 6.55515 38.5366 5.88602C38.5366 5.28494 38.4232 4.72923 38.2077 4.21888C37.9922 3.70853 37.6634 3.3116 37.2324 3.00539C36.8014 2.69918 36.2911 2.55174 35.69 2.55174C35.3498 2.55174 35.0209 2.63113 34.6807 2.77857C34.3404 2.93734 34.0682 3.14148 33.8641 3.40232C33.7734 3.20953 33.6713 3.02807 33.5352 2.88063C33.4105 2.7332 33.2744 2.61979 33.1496 2.5404L32.4351 3.19819C32.798 3.50439 32.9795 4.0034 32.9795 4.67253V11.273H32.9908ZM34.0115 4.96739C34.0456 4.54777 34.2383 4.1962 34.5786 3.92401C34.9188 3.65183 35.3044 3.51574 35.724 3.51574C36.2571 3.51574 36.688 3.7539 37.0056 4.21888C37.3231 4.68387 37.4819 5.26226 37.4819 5.95407C37.4819 6.69124 37.2891 7.26963 36.9148 7.71194C36.5406 8.15424 35.9849 8.36972 35.2704 8.36972C34.9528 8.36972 34.5332 8.34704 34.0115 8.29033V4.96739ZM44.5474 8.88007C45.0124 9.15225 45.5567 9.28835 46.1692 9.28835C46.6228 9.28835 47.0651 9.2203 47.4961 9.07287C47.9384 8.92543 48.3353 8.70995 48.6982 8.43777L48.2559 7.62121C47.8363 7.88205 47.4847 8.06351 47.1785 8.16558C46.8723 8.27899 46.5548 8.32435 46.2259 8.32435C45.5681 8.32435 45.0577 8.12021 44.6835 7.71194C44.3092 7.30366 44.1164 6.7366 44.1164 6.02211C44.1164 5.25092 44.3092 4.62716 44.6948 4.18486C45.0804 3.73122 45.6021 3.50439 46.2712 3.50439C46.5548 3.50439 46.8043 3.54976 46.9971 3.64049C47.2012 3.73122 47.394 3.87865 47.5981 4.09413L48.2332 3.37964C48.0858 3.15282 47.825 2.94868 47.4394 2.78991C47.0651 2.63113 46.6682 2.55174 46.2599 2.55174C45.6361 2.55174 45.0918 2.69918 44.6041 2.9827C44.1164 3.27757 43.7422 3.67451 43.4813 4.1962C43.2091 4.71789 43.0844 5.31897 43.0844 5.98809C43.0844 6.64587 43.2091 7.22427 43.47 7.71194C43.7195 8.22228 44.0824 8.60788 44.5474 8.88007ZM52.8717 9.34505C53.3367 9.34505 53.8017 9.26566 54.2554 9.11823C54.709 8.95946 55.1059 8.75532 55.4462 8.49447L54.9698 7.73462C54.5502 7.96144 54.1873 8.12021 53.8924 8.22228C53.5976 8.32435 53.2687 8.38106 52.9284 8.38106C52.2026 8.38106 51.7036 8.17692 51.4314 7.7573C51.1592 7.33768 51.0118 6.8727 51.0005 6.33967H55.5142L55.5482 5.96541C55.5596 5.88602 55.5709 5.79529 55.5709 5.68188C55.5823 5.57981 55.5823 5.44372 55.5823 5.29629C55.5823 4.7746 55.4688 4.30961 55.2307 3.88999C54.9925 3.47037 54.6636 3.13014 54.2554 2.89198C53.8471 2.65381 53.3821 2.52906 52.8831 2.52906C52.2707 2.52906 51.7376 2.69918 51.2953 3.03941C50.853 3.37964 50.5128 3.82194 50.2746 4.36632C50.0365 4.91069 49.9231 5.50042 49.9231 6.13553C49.9231 6.75928 50.0365 7.315 50.2746 7.80266C50.5015 8.29033 50.8417 8.67593 51.2953 8.94811C51.749 9.20896 52.2707 9.34505 52.8717 9.34505ZM51.7036 3.9467C52.0325 3.61781 52.4181 3.45903 52.8717 3.45903C53.1893 3.45903 53.4842 3.53842 53.745 3.69719C54.0058 3.85597 54.21 4.07145 54.3688 4.34363C54.5162 4.61582 54.5956 4.93337 54.5956 5.2736V5.37567H51.0685C51.1706 4.75191 51.3861 4.27559 51.7036 3.9467ZM63.7138 2.74454L61.4002 7.66657L59.064 2.74454H58.066L57.3061 9.20896H58.3381L58.8598 4.52509L60.9693 8.85738H61.8312L63.9406 4.52509L64.485 9.20896H65.483L64.7345 2.74454H63.7138ZM71.5165 2.89198C71.1082 2.65381 70.6432 2.52906 70.1442 2.52906C69.5318 2.52906 68.9988 2.69918 68.5564 3.03941C68.1142 3.37964 67.7739 3.82194 67.5358 4.36632C67.2976 4.91069 67.1842 5.50042 67.1842 6.13553C67.1842 6.75928 67.2976 7.315 67.5358 7.80266C67.7626 8.29033 68.1028 8.67593 68.5564 8.94811C68.9988 9.2203 69.5204 9.35639 70.1329 9.35639C70.5978 9.35639 71.0628 9.27701 71.5165 9.12957C71.9701 8.9708 72.3671 8.76666 72.7073 8.50581L72.231 7.74596C71.8113 7.97278 71.4484 8.13156 71.1536 8.23363C70.8587 8.3357 70.5298 8.3924 70.1896 8.3924C69.4637 8.3924 68.9647 8.18826 68.6925 7.76864C68.4204 7.34902 68.2729 6.88404 68.2616 6.35101H72.7753L72.8094 5.97675C72.8207 5.89736 72.832 5.80663 72.832 5.69322C72.832 5.57981 72.8434 5.45506 72.8434 5.30763C72.8434 4.78594 72.73 4.32095 72.4918 3.90133C72.265 3.47037 71.9361 3.14148 71.5165 2.89198ZM71.8567 5.36433H68.3296C68.4317 4.74057 68.6472 4.26425 68.9761 3.9467C69.305 3.61781 69.6906 3.45903 70.1442 3.45903C70.4618 3.45903 70.7566 3.53842 71.0175 3.69719C71.2783 3.85597 71.4825 4.07145 71.6412 4.34363C71.7887 4.61582 71.868 4.93337 71.868 5.2736V5.36433H71.8567ZM77.7541 1.12277C77.4365 1.12277 77.1984 1.0207 77.0509 0.816558C76.9035 0.612418 76.8354 0.340232 76.8354 0H75.8034C75.7807 0.601077 75.9508 1.0774 76.2911 1.45166C76.6313 1.82591 77.119 2.01871 77.7427 2.01871C78.3438 2.01871 78.8201 1.83726 79.1604 1.48568C79.5006 1.13411 79.6707 0.635101 79.6594 0H78.616C78.65 0.748511 78.3551 1.12277 77.7541 1.12277ZM80.7935 9.2203V2.74454H79.6707L76.0529 7.54182V4.13949C76.0416 3.79926 75.9508 3.47037 75.758 3.16416C75.5766 2.85795 75.3724 2.65381 75.157 2.52906L74.4425 3.18684C74.8054 3.49305 74.9868 3.99206 74.9868 4.66118V9.19762H76.0983L79.7274 4.40034V9.20896H80.7935V9.2203ZM87.7229 5.53445H84.4226V4.42302C84.4226 3.68585 84.1504 3.05075 83.6061 2.50638L82.8802 3.22087C83.1978 3.53842 83.3566 3.9467 83.3566 4.43436V9.20896H84.4226V6.52112H87.7229V9.20896H88.7889V2.74454H87.7229V5.53445ZM96.8865 4.18486C96.6143 3.66317 96.2287 3.25489 95.741 2.96002C95.2533 2.66515 94.709 2.51772 94.0966 2.51772C93.4841 2.51772 92.9398 2.66515 92.4521 2.96002C91.9644 3.25489 91.5788 3.66317 91.3066 4.18486C91.0231 4.70655 90.887 5.28494 90.887 5.93139C90.887 6.57783 91.0231 7.15622 91.3066 7.66657C91.5788 8.17692 91.9644 8.5852 92.4521 8.88007C92.9398 9.17494 93.4841 9.32237 94.0966 9.32237C94.709 9.32237 95.2647 9.17494 95.7523 8.88007C96.24 8.5852 96.6256 8.17692 96.9091 7.66657C97.1813 7.14488 97.3288 6.56649 97.3288 5.92004C97.2947 5.28494 97.1586 4.70655 96.8865 4.18486ZM95.6503 7.71194C95.2533 8.15424 94.743 8.38106 94.0966 8.38106C93.4501 8.38106 92.9284 8.15424 92.5315 7.71194C92.1346 7.25829 91.9417 6.66856 91.9417 5.94273C91.9417 5.45506 92.0325 5.03544 92.2139 4.66118C92.3954 4.28693 92.6449 4.0034 92.9738 3.79926C93.3027 3.59512 93.6769 3.49305 94.0966 3.49305C94.743 3.49305 95.2647 3.71988 95.6503 4.16218C96.0472 4.61582 96.24 5.20556 96.24 5.94273C96.24 6.66856 96.0359 7.25829 95.6503 7.71194ZM102.183 2.01871C102.784 2.01871 103.26 1.83726 103.6 1.48568C103.941 1.13411 104.111 0.635101 104.099 0H103.056C103.079 0.748511 102.795 1.12277 102.194 1.12277C101.877 1.12277 101.638 1.0207 101.491 0.816558C101.355 0.62376 101.275 0.340232 101.275 0H100.243C100.221 0.601077 100.391 1.0774 100.731 1.45166C101.071 1.82591 101.559 2.01871 102.183 2.01871ZM99.4269 9.20896H100.538L104.167 4.41168V9.2203H105.233V2.74454H104.111L100.493 7.54182V4.13949C100.482 3.79926 100.391 3.47037 100.198 3.16416C100.017 2.85795 99.8125 2.65381 99.597 2.52906L98.8825 3.18684C99.2454 3.49305 99.4269 3.99206 99.4269 4.66118V9.20896ZM0.487305 23.9864H1.55337V18.5086H4.84228V23.9864H5.897V17.522H0.487305V23.9864ZM12.0552 22.9543C11.749 23.0678 11.4314 23.1131 11.1026 23.1131C10.4448 23.1131 9.93442 22.909 9.56017 22.5007C9.18591 22.0924 8.99311 21.5254 8.99311 20.8109C8.99311 20.0397 9.18591 19.4159 9.57151 18.9736C9.9571 18.52 10.4788 18.2932 11.1479 18.2932C11.4314 18.2932 11.6809 18.3385 11.8737 18.4293C12.0779 18.52 12.2707 18.6674 12.4748 18.8829L13.1099 18.1684C12.9625 17.9416 12.7016 17.7375 12.316 17.5787C11.9418 17.4199 11.5449 17.3405 11.1366 17.3405C10.5128 17.3405 9.96844 17.4879 9.48078 17.7715C8.99311 18.0663 8.61886 18.4633 8.35801 18.985C8.08583 19.5067 7.96107 20.1077 7.96107 20.7769C7.96107 21.4346 8.08583 22.013 8.34667 22.5007C8.59617 22.9997 8.95909 23.3853 9.42407 23.6575C9.88906 23.9297 10.4334 24.0658 11.0458 24.0658C11.4995 24.0658 11.9418 23.9977 12.3728 23.8503C12.8151 23.7029 13.212 23.4874 13.5749 23.2152L13.1326 22.3986C12.7243 22.6708 12.3614 22.8523 12.0552 22.9543ZM16.5236 22.3193V18.9169C16.5122 18.5767 16.4215 18.2478 16.2287 17.9416C16.0473 17.6354 15.8431 17.4312 15.6276 17.3065L14.9132 17.9643C15.2761 18.2705 15.4575 18.7695 15.4575 19.4386V23.975H16.569L20.1981 19.1778V23.9864H21.2642V17.5106H20.1414L16.5236 22.3193ZM27.2976 17.3972L25.8346 19.8129L24.3036 17.3972H23.0674L25.1655 20.6861L23.1014 23.9977H24.3149L25.846 21.5821L27.0821 23.6121C27.2522 23.839 27.4564 23.9977 27.6719 24.0998C27.8873 24.2019 28.1595 24.2472 28.4657 24.2132L28.409 23.1472C28.2389 23.1585 28.1255 23.1585 28.0801 23.1358C28.0348 23.1245 28.0008 23.0904 27.9667 23.0564L26.5037 20.6521L28.5224 17.3972H27.2976ZM34.9415 17.7375C34.4538 17.4426 33.9095 17.2952 33.297 17.2952C32.6846 17.2952 32.1403 17.4426 31.6526 17.7375C31.1649 18.0323 30.7793 18.4406 30.5071 18.9623C30.2236 19.484 30.0875 20.0624 30.0875 20.7088C30.0875 21.3553 30.2236 21.9337 30.5071 22.444C30.7793 22.9543 31.1649 23.3626 31.6526 23.6575C32.1403 23.9524 32.6846 24.0998 33.297 24.0998C33.9095 24.0998 34.4652 23.9524 34.9528 23.6575C35.4405 23.3626 35.8261 22.9543 36.1096 22.444C36.3818 21.9223 36.5293 21.3439 36.5293 20.6975C36.5293 20.051 36.3932 19.4613 36.1096 18.9509C35.8034 18.4406 35.4292 18.0323 34.9415 17.7375ZM34.8508 22.4894C34.4538 22.9317 33.9435 23.1585 33.297 23.1585C32.6506 23.1585 32.1289 22.9317 31.732 22.4894C31.335 22.0357 31.1422 21.446 31.1422 20.7202C31.1422 20.2325 31.233 19.8129 31.4144 19.4386C31.5959 19.0644 31.8454 18.7808 32.1743 18.5767C32.5032 18.3726 32.8774 18.2705 33.297 18.2705C33.9435 18.2705 34.4652 18.4973 34.8508 18.9396C35.2477 19.3933 35.4405 19.983 35.4405 20.7202C35.4292 21.446 35.2364 22.0357 34.8508 22.4894ZM39.1604 20.4593C39.115 21.48 39.0243 22.2172 38.8769 22.6708C38.8088 22.8976 38.7408 23.0337 38.6841 23.1018C38.6273 23.1585 38.5366 23.1925 38.4232 23.1925C38.3211 23.1925 38.2418 23.1471 38.1737 23.0678L37.4479 23.6462C37.5726 23.8049 37.7314 23.9297 37.9015 24.0091C38.083 24.0885 38.2644 24.1225 38.4459 24.1225C38.7975 24.1225 39.081 24.0318 39.2851 23.8276C39.4893 23.6348 39.6594 23.3513 39.7841 22.977C39.9316 22.5347 40.0336 21.8656 40.0903 20.981C40.1471 20.0964 40.1697 19.2572 40.1697 18.4633H42.6421V23.9864H43.7081V17.4653L39.2511 17.4766C39.2398 18.4406 39.2171 19.4273 39.1604 20.4593ZM50.5808 17.7375C50.0932 17.4426 49.5488 17.2952 48.9364 17.2952C48.324 17.2952 47.7796 17.4426 47.2919 17.7375C46.8043 18.0323 46.4187 18.4406 46.1465 18.9623C45.863 19.484 45.7269 20.0624 45.7269 20.7088C45.7269 21.3553 45.863 21.9337 46.1465 22.444C46.4187 22.9543 46.8043 23.3626 47.2919 23.6575C47.7796 23.9524 48.324 24.0998 48.9364 24.0998C49.5488 24.0998 50.1045 23.9524 50.5922 23.6575C51.0799 23.3626 51.4654 22.9543 51.749 22.444C52.0212 21.9223 52.1686 21.3439 52.1686 20.6975C52.1686 20.051 52.0325 19.4613 51.749 18.9509C51.4541 18.4406 51.0685 18.0323 50.5808 17.7375ZM50.4901 22.4894C50.0932 22.9317 49.5828 23.1585 48.9364 23.1585C48.2899 23.1585 47.7683 22.9317 47.3713 22.4894C46.9744 22.0357 46.7816 21.446 46.7816 20.7202C46.7816 20.2325 46.8723 19.8129 47.0538 19.4386C47.2352 19.0644 47.4847 18.7808 47.8136 18.5767C48.1425 18.3726 48.5168 18.2705 48.9364 18.2705C49.5828 18.2705 50.1045 18.4973 50.4901 18.9396C50.8871 19.3933 51.0798 19.983 51.0798 20.7202C51.0798 21.446 50.8871 22.0357 50.4901 22.4894ZM54.1646 23.9864H55.2307V18.486H58.6784V17.4993H54.1646V23.9864ZM73.4558 17.522L69.838 22.3193V18.9169C69.8267 18.5767 69.7359 18.2478 69.5431 17.9416C69.3617 17.6354 69.1575 17.4312 68.942 17.3065L68.2276 17.9643C68.5905 18.2705 68.7719 18.7695 68.7719 19.4386V23.975H69.8834L73.5125 19.1778V23.9864H74.5786V17.5106H73.4558V17.522ZM61.4343 22.3193V18.9169C61.4229 18.5767 61.3322 18.2478 61.1394 17.9416C60.9579 17.6354 60.7538 17.4312 60.5383 17.3065L59.8238 17.9643C60.1867 18.2705 60.3682 18.7695 60.3682 19.4386V23.975H61.4796L65.1088 19.1778V23.9864H66.1748V17.5106H65.0521L61.4343 22.3193Z" fill="#E86953"/>
<path d="M1.76964 37.9473C1.30466 37.6751 0.941741 37.2895 0.692237 36.7905C0.442734 36.2915 0.306641 35.7244 0.306641 35.0666C0.306641 34.3975 0.442734 33.7964 0.703578 33.2747C0.975764 32.753 1.35002 32.3448 1.82635 32.0612C2.31401 31.7777 2.85838 31.6303 3.48214 31.6303C3.89042 31.6303 4.27602 31.7097 4.66162 31.8684C5.03587 32.0272 5.30806 32.22 5.45549 32.4582L4.82039 33.1727C4.62759 32.9572 4.42345 32.8098 4.21931 32.719C4.01517 32.6283 3.77701 32.5943 3.49348 32.5943C2.82436 32.5943 2.30267 32.8211 1.91707 33.2747C1.53148 33.7284 1.33868 34.3408 1.33868 35.112C1.33868 35.8265 1.53148 36.3935 1.90573 36.8018C2.27999 37.2101 2.79034 37.4142 3.44812 37.4142C3.77701 37.4142 4.09456 37.3575 4.40077 37.2555C4.70698 37.1534 5.06989 36.9606 5.47817 36.7111L5.92048 37.5276C5.55756 37.7998 5.16062 38.0153 4.71832 38.1627C4.27602 38.3102 3.83372 38.3782 3.39141 38.3782C2.779 38.3669 2.24597 38.2308 1.76964 37.9473Z" fill="#E86953"/>
<path d="M11.6366 31.7664C11.3304 31.8798 11.0015 31.9365 10.6386 31.9251L10.4004 31.0065C10.4458 31.0178 10.5025 31.0178 10.5932 31.0178C10.9221 31.0178 11.2623 30.9271 11.6025 30.7343C11.9541 30.5415 12.4191 30.2466 13.0088 29.827C13.0655 29.793 13.1563 29.7363 13.281 29.6456H13.5872V38.2875H12.5325V31.2447C12.2376 31.4715 11.9428 31.6416 11.6366 31.7664Z" fill="#E86953"/>
<path d="M20.0964 30.2467C20.5841 30.5529 20.9583 30.9725 21.2192 31.5055C21.4914 32.0499 21.6161 32.6623 21.6161 33.3768C21.6161 34.2387 21.412 35.0326 21.015 35.7471C20.6181 36.4616 20.0397 37.074 19.2912 37.573C18.8602 37.8679 18.3953 38.0833 17.8849 38.2194C17.3859 38.3555 16.8642 38.4122 16.3425 38.4009V37.4483C16.7508 37.4709 17.1591 37.4142 17.5787 37.3008C17.9983 37.1874 18.3953 37.0059 18.7695 36.7791C19.1551 36.5296 19.4953 36.2007 19.8015 35.8038C20.0964 35.4069 20.3119 34.9759 20.4253 34.5336C20.2325 34.8738 19.9376 35.1687 19.5407 35.3955C19.1438 35.6337 18.7468 35.7471 18.3726 35.7471C17.8395 35.7471 17.3405 35.611 16.8756 35.3388C16.4106 35.0666 16.0363 34.7037 15.7755 34.2387C15.5033 33.7737 15.3672 33.2861 15.3672 32.753C15.3672 32.22 15.5033 31.721 15.7755 31.2674C16.0477 30.8137 16.4219 30.4508 16.8982 30.19C17.3632 29.9291 17.8736 29.793 18.4293 29.793C19.053 29.793 19.6087 29.9405 20.0964 30.2467ZM17.4199 31.0405C17.1137 31.222 16.8755 31.4602 16.6941 31.7664C16.5126 32.0726 16.4219 32.4015 16.4219 32.753C16.4219 33.1046 16.5126 33.4335 16.6941 33.7397C16.8755 34.0459 17.1137 34.2841 17.4199 34.4655C17.7261 34.647 18.0437 34.7377 18.3839 34.7377C18.7582 34.7377 19.0984 34.647 19.4046 34.4655C19.7108 34.2841 19.9603 34.0459 20.1418 33.7397C20.3232 33.4335 20.414 33.0933 20.414 32.7304C20.414 32.3901 20.3232 32.0612 20.1418 31.7664C19.9603 31.4602 19.7108 31.222 19.4046 31.0405C19.0984 30.8591 18.7582 30.7684 18.4066 30.7684C18.055 30.7797 17.7148 30.8591 17.4199 31.0405Z" fill="#E86953"/>
<path d="M27.5251 30.2467C28.0128 30.5529 28.387 30.9725 28.6479 31.5055C28.9201 32.0499 29.0448 32.6623 29.0448 33.3768C29.0448 34.2387 28.8407 35.0326 28.4438 35.7471C28.0468 36.4616 27.4684 37.074 26.7199 37.573C26.289 37.8679 25.824 38.0833 25.3136 38.2194C24.8146 38.3555 24.2929 38.4122 23.7712 38.4009V37.4483C24.1795 37.4709 24.5878 37.4142 25.0074 37.3008C25.427 37.1874 25.824 37.0059 26.1982 36.7791C26.5838 36.5296 26.9241 36.2007 27.2303 35.8038C27.5251 35.4069 27.7406 34.9759 27.854 34.5336C27.6612 34.8738 27.3664 35.1687 26.9694 35.3955C26.5725 35.6337 26.1755 35.7471 25.8013 35.7471C25.2683 35.7471 24.7692 35.611 24.3043 35.3388C23.8393 35.0666 23.465 34.7037 23.2042 34.2387C22.932 33.7737 22.7959 33.2861 22.7959 32.753C22.7959 32.22 22.932 31.721 23.2042 31.2674C23.4764 30.8137 23.8506 30.4508 24.3269 30.19C24.7919 29.9291 25.3023 29.793 25.858 29.793C26.4931 29.793 27.0488 29.9405 27.5251 30.2467ZM24.8486 31.0405C24.5424 31.222 24.3043 31.4602 24.1228 31.7664C23.9413 32.0726 23.8506 32.4015 23.8506 32.753C23.8506 33.1046 23.9413 33.4335 24.1228 33.7397C24.3043 34.0459 24.5424 34.2841 24.8486 34.4655C25.1548 34.647 25.4724 34.7377 25.8126 34.7377C26.1869 34.7377 26.5271 34.647 26.8333 34.4655C27.1395 34.2841 27.389 34.0459 27.5705 33.7397C27.7519 33.4335 27.8427 33.0933 27.8427 32.7304C27.8427 32.3901 27.7519 32.0612 27.5705 31.7664C27.389 31.4602 27.1395 31.222 26.8333 31.0405C26.5271 30.8591 26.1869 30.7684 25.8353 30.7684C25.4837 30.7797 25.1548 30.8591 24.8486 31.0405Z" fill="#E86953"/>
<path d="M31.0975 31.7664C30.7913 31.8798 30.4624 31.9365 30.0995 31.9251L29.8613 31.0065C29.9067 31.0178 29.9634 31.0178 30.0541 31.0178C30.383 31.0178 30.7233 30.9271 31.0635 30.7343C31.4151 30.5415 31.88 30.2466 32.4698 29.827C32.5265 29.793 32.6172 29.7363 32.742 29.6456H33.0482V38.2875H31.9935V31.2447C31.6986 31.4715 31.4037 31.6416 31.0975 31.7664Z" fill="#E86953"/>
<path d="M43.5385 31.8004V32.7871H40.0909V38.2875H39.0361V31.8117H43.5385V31.8004Z" fill="#E86953"/>
<path d="M45.5576 37.9586C45.07 37.6637 44.6844 37.2668 44.4122 36.7451C44.14 36.2348 44.0039 35.6564 44.0039 35.0099C44.0039 34.3635 44.14 33.7851 44.4235 33.2634C44.7071 32.7417 45.0926 32.3334 45.569 32.0386C46.0566 31.7437 46.601 31.5963 47.2134 31.5963C47.8258 31.5963 48.3702 31.7437 48.8579 32.0386C49.3455 32.3334 49.7311 32.7417 50.0033 33.2634C50.2755 33.7851 50.4116 34.3635 50.4116 35.0099C50.4116 35.6564 50.2755 36.2348 50.0033 36.7565C49.7311 37.2781 49.3455 37.6751 48.8579 37.9699C48.3702 38.2648 47.8145 38.4123 47.2021 38.4123C46.5897 38.4009 46.0453 38.2535 45.5576 37.9586ZM48.7785 36.7678C49.1754 36.3141 49.3682 35.7244 49.3682 34.9986C49.3682 34.2614 49.1754 33.6603 48.7785 33.218C48.3816 32.7644 47.8712 32.5489 47.2248 32.5489C46.8051 32.5489 46.4309 32.651 46.102 32.8551C45.7731 33.0593 45.5236 33.3541 45.3422 33.717C45.1607 34.0913 45.07 34.5109 45.07 34.9986C45.07 35.7358 45.2628 36.3255 45.6597 36.7678C46.0566 37.2214 46.5783 37.4369 47.2248 37.4369C47.8712 37.4483 48.3816 37.2214 48.7785 36.7678Z" fill="#E86953"/>
<path d="M57.0229 40V38.2648H52.339V40H51.1709V37.3235L51.7493 37.3121C52.1576 36.6203 52.4751 36.0079 52.7019 35.4749C52.9174 34.9418 53.0875 34.3975 53.201 33.8531C53.3144 33.3087 53.4164 32.6283 53.4958 31.8117H57.227V37.3121L58.1684 37.3235V40H57.0229ZM53.8587 35.1687C53.6546 35.8378 53.3257 36.5523 52.8834 37.3121H56.1723V32.7644H54.3577C54.2443 33.7057 54.0742 34.5109 53.8587 35.1687Z" fill="#E86953"/>
<path d="M63.2041 37.6183C63.0113 37.8678 62.7391 38.0606 62.4102 38.1967C62.0813 38.3328 61.7071 38.4009 61.2874 38.4009C60.5843 38.4009 60.0172 38.2081 59.5863 37.8225C59.1553 37.4369 58.9512 36.9265 58.9512 36.2801C58.9512 35.611 59.2007 35.0893 59.711 34.7037C60.2214 34.3294 60.9359 34.1366 61.8431 34.1366H62.9659V33.8644C62.9659 33.3768 62.8752 33.0252 62.7051 32.8211C62.5236 32.6169 62.2287 32.5149 61.8091 32.5149C61.4462 32.5149 61.0946 32.5829 60.7431 32.7077C60.3915 32.8324 60.0739 33.0252 59.7791 33.2634L59.2574 32.4695C59.5636 32.186 59.9492 31.9591 60.4028 31.8004C60.8565 31.6416 61.3328 31.5509 61.8091 31.5509C62.5236 31.5509 63.068 31.7323 63.4536 32.1066C63.8278 32.4808 64.0206 33.0139 64.0206 33.7057V36.2801C64.0206 36.9606 64.2021 37.4596 64.5763 37.7658L63.8959 38.4122C63.567 38.2194 63.3402 37.9359 63.2041 37.6183ZM62.5123 37.0173C62.8185 36.7337 62.9659 36.3595 62.9659 35.8945V35.1006H61.8431C61.1967 35.1006 60.7317 35.1914 60.4369 35.3842C60.1533 35.5656 60.0059 35.8605 60.0059 36.2688C60.0059 36.643 60.1193 36.9265 60.3461 37.1307C60.5729 37.3348 60.8905 37.4369 61.2988 37.4369C61.7978 37.4482 62.2061 37.3008 62.5123 37.0173Z" fill="#E86953"/>
</g>
<defs>
<clipPath id="clip0_733_233">
<rect width="105.234" height="40" fill="white"/>
</clipPath>
</defs>
</svg>
